<svg width="161" height="53" viewBox="0 0 161 53" fill="none" xmlns="http://www.w3.org/2000/svg">
<path d="M45.8262 26.5288H49.9468V29.3882C50.2113 28.9413 50.5326 28.5306 50.9026 28.1661C51.304 27.7656 51.7572 27.4205 52.25 27.1399C52.7726 26.8411 53.327 26.602 53.903 26.427C54.51 26.2429 55.141 26.1505 55.7753 26.1528C56.8505 26.141 57.9169 26.349 58.9089 26.7639C59.8638 27.1639 60.7194 27.7682 61.4158 28.5343C62.1409 29.3566 62.6995 30.3117 63.0609 31.3467C63.4859 32.5811 63.6927 33.8801 63.6719 35.1854V35.4517C63.6914 36.7723 63.4847 38.0865 63.0609 39.3374C62.7101 40.3974 62.1567 41.3792 61.4314 42.2281C60.7476 43.0147 59.8964 43.6384 58.9402 44.0534C57.9344 44.4787 56.8516 44.6921 55.7596 44.6801C54.4753 44.7293 53.2035 44.4114 52.0933 43.7636C51.19 43.2184 50.4426 42.4494 49.9233 41.5309V50.4381H45.8262V26.5288ZM54.7491 41.4134C55.3999 41.454 56.0514 41.3444 56.6531 41.0931C57.2549 40.8418 57.7908 40.4555 58.2195 39.9641C59.1111 38.6796 59.5368 37.1289 59.4259 35.5692V35.2637C59.4406 34.3916 59.3217 33.5224 59.0734 32.6863C58.8618 32.0071 58.5184 31.3762 58.0628 30.8297C57.6517 30.3691 57.1396 30.0098 56.5665 29.7799C55.6586 29.416 54.6641 29.3252 53.7052 29.5186C52.7463 29.7121 51.8648 30.1814 51.1689 30.8689C50.255 31.8194 49.7954 33.2843 49.7902 35.2637V35.5379C49.7902 37.5434 50.2393 39.024 51.1376 39.9798C51.5971 40.465 52.1549 40.8466 52.7736 41.0992C53.3923 41.3519 54.0577 41.4696 54.7256 41.4447L54.7491 41.4134Z" fill="#084FFF"/>
<path d="M69.0525 23.6021C68.7319 23.6089 68.4132 23.5522 68.1147 23.4352C67.8162 23.3182 67.5439 23.1433 67.3133 22.9205C67.0831 22.7087 66.9005 22.4504 66.7776 22.1628C66.6547 21.8751 66.5943 21.5646 66.6004 21.2519C66.5919 20.9342 66.651 20.6183 66.7739 20.3252C66.8968 20.0321 67.0807 19.7685 67.3133 19.5519C67.7867 19.1142 68.4077 18.8711 69.0525 18.8711C69.6972 18.8711 70.3182 19.1142 70.7916 19.5519C71.0226 19.7697 71.2054 20.0335 71.3282 20.3263C71.451 20.6191 71.511 20.9344 71.5045 21.2519C71.5086 21.5644 71.4473 21.8742 71.3245 22.1616C71.2017 22.449 71.0202 22.7075 70.7916 22.9205C70.561 23.1433 70.2887 23.3182 69.9902 23.4352C69.6917 23.5522 69.373 23.6089 69.0525 23.6021ZM67.0391 26.532H71.1598V44.3464H67.0391V26.532Z" fill="#084FFF"/>
<path d="M81.8605 44.666C79.9412 44.7839 78.0386 44.2482 76.4629 43.1462C75.8125 42.6128 75.2899 41.9404 74.9333 41.1786C74.5768 40.4167 74.3954 39.5847 74.4025 38.7435H78.3195C78.3821 39.5329 78.714 40.2769 79.2596 40.8509C79.9959 41.438 80.9303 41.7186 81.8683 41.6343C82.7186 41.701 83.5684 41.4982 84.2968 41.0545C84.5579 40.8581 84.7661 40.6 84.9028 40.3033C85.0395 40.0066 85.1005 39.6806 85.0802 39.3546C85.0921 39.0333 85.0121 38.7153 84.8498 38.4379C84.6875 38.1604 84.4495 37.9349 84.1637 37.7878C83.2488 37.3515 82.2704 37.0633 81.2651 36.9339C80.2511 36.7898 79.2504 36.5645 78.2725 36.2602C77.5464 36.0356 76.8688 35.6769 76.2749 35.2026C75.7829 34.7954 75.4028 34.2697 75.1703 33.6749C74.9281 32.9859 74.814 32.2585 74.8334 31.5284C74.8109 30.708 75.0084 29.8966 75.4053 29.1783C75.7854 28.521 76.304 27.9542 76.9251 27.5175C77.5717 27.0602 78.2926 26.7182 79.0559 26.5069C79.8542 26.2838 80.6791 26.1704 81.5079 26.17C82.3719 26.1667 83.2337 26.2586 84.0775 26.4442C84.839 26.605 85.5624 26.9108 86.2083 27.3451C86.803 27.785 87.2949 28.3491 87.6498 28.9981C88.0805 29.7822 88.3471 30.6458 88.4332 31.5363H84.6024C84.4876 30.8374 84.1331 30.2003 83.5996 29.7345C82.9642 29.3044 82.2028 29.1002 81.4374 29.1548C80.7011 29.1096 79.9707 29.3108 79.3614 29.7266C79.1115 29.9027 78.9091 30.1379 78.7724 30.4114C78.6357 30.6848 78.5689 30.9879 78.578 31.2934C78.5706 31.5823 78.6295 31.8691 78.7504 32.1317C78.8822 32.391 79.0899 32.6042 79.3458 32.7427C79.7022 32.9447 80.0843 33.0975 80.4817 33.1971C81.0633 33.3599 81.6546 33.4854 82.2522 33.5731C83.2014 33.7115 84.1407 33.9104 85.0646 34.1685C85.8098 34.3694 86.5166 34.6923 87.1562 35.1242C87.7247 35.522 88.1786 36.0624 88.4723 36.691C88.8007 37.4298 88.9587 38.2331 88.9345 39.0412C88.9786 39.8387 88.835 40.6355 88.5153 41.3675C88.1955 42.0995 87.7086 42.7462 87.0936 43.2559C85.895 44.1881 84.1402 44.666 81.8605 44.666Z" fill="#084FFF"/>
<path d="M100.548 44.6665C99.3106 44.6797 98.0815 44.4673 96.9205 44.0398C95.8525 43.6409 94.8788 43.0247 94.0611 42.2302C93.2403 41.4259 92.5995 40.4567 92.181 39.3864C91.7246 38.1808 91.5013 36.8994 91.5229 35.6105V35.3363C91.5046 34.0527 91.7278 32.7771 92.181 31.576C92.5986 30.4948 93.2301 29.5089 94.0376 28.6774C94.837 27.8673 95.7942 27.2301 96.85 26.8051C97.9696 26.3525 99.1677 26.1262 100.375 26.1392C101.459 26.1356 102.535 26.3076 103.564 26.6484C104.557 26.9712 105.469 27.5057 106.235 28.2152C107.044 29 107.677 29.948 108.092 30.9963C108.585 32.2963 108.822 33.6797 108.789 35.0699V36.2607H95.7454C95.7186 37.6831 96.1928 39.0696 97.085 40.1777C97.5404 40.6647 98.0969 41.0461 98.7153 41.2951C99.3338 41.5442 99.9994 41.6547 100.665 41.6191C101.67 41.6831 102.67 41.4311 103.525 40.8984C104.186 40.4076 104.628 39.6758 104.754 38.8616H108.734C108.633 39.7251 108.35 40.5576 107.905 41.3042C107.459 42.0508 106.861 42.6948 106.149 43.1937C104.478 44.2508 102.522 44.7652 100.548 44.6665ZM104.7 33.5658C104.707 32.321 104.252 31.1177 103.423 30.1894C102.583 29.454 101.489 29.0771 100.375 29.1396C99.8118 29.1185 99.2499 29.2118 98.7235 29.4137C98.1971 29.6157 97.717 29.9222 97.3122 30.3147C96.461 31.1995 95.9314 32.3443 95.8081 33.5658H104.7Z" fill="#084FFF"/>
<path d="M112.047 26.5318H116.168V29.869C116.664 28.818 117.419 27.9098 118.361 27.229C119.435 26.5528 120.688 26.2144 121.957 26.2576V30.1041C121.137 30.0942 120.32 30.181 119.52 30.3626C118.859 30.5072 118.236 30.7931 117.695 31.2008C117.19 31.5957 116.798 32.1174 116.559 32.7128C116.275 33.4626 116.142 34.2614 116.168 35.063V44.3462H112.047V26.5318Z" fill="#084FFF"/>
<path d="M124.031 26.5312H128.457L133.158 40.1232L137.756 26.5312H141.807L135.367 44.3457H130.565L124.031 26.5312Z" fill="#084FFF"/>
<path d="M152.131 44.6645C150.894 44.6777 149.665 44.4653 148.504 44.0378C147.435 43.637 146.459 43.0211 145.637 42.2282C144.815 41.4295 144.171 40.4656 143.749 39.4001C143.29 38.195 143.064 36.9136 143.083 35.6241V35.3499C143.067 34.0658 143.293 32.7902 143.749 31.5896C144.167 30.5084 144.798 29.5226 145.606 28.6911C146.414 27.8774 147.382 27.24 148.449 26.8188C149.569 26.3662 150.767 26.1398 151.975 26.1529C153.055 26.1493 154.13 26.3213 155.155 26.6621C156.152 26.9829 157.066 27.5176 157.835 28.2289C158.644 29.0137 159.277 29.9617 159.691 31.0099C160.185 32.3099 160.422 33.6934 160.388 35.0836V36.2744H147.329C147.299 37.6973 147.774 39.0849 148.669 40.1913C149.129 40.6636 149.686 41.0306 150.301 41.2673C150.916 41.5039 151.575 41.6046 152.233 41.5623C153.238 41.6263 154.238 41.3743 155.093 40.8416C155.751 40.3493 156.19 39.6177 156.315 38.8047H160.302C160.199 39.6678 159.916 40.4995 159.47 41.2458C159.025 41.9922 158.428 42.6365 157.717 43.1369C156.057 44.2086 154.106 44.7421 152.131 44.6645ZM156.283 33.5795C156.291 32.3346 155.836 31.1313 155.006 30.203C154.167 29.4677 153.073 29.0908 151.959 29.1533C151.395 29.1313 150.833 29.2241 150.307 29.4261C149.78 29.6281 149.3 29.9351 148.896 30.3284C148.045 31.2132 147.515 32.358 147.392 33.5795H156.283Z" fill="#084FFF"/>
<path d="M3.97663 52.846C3.0264 52.846 2.11497 52.4691 1.44233 51.7979C0.769678 51.1267 0.390747 50.2161 0.388672 49.2659L0.388672 36.5671C0.388672 36.1832 0.388672 35.7837 0.388672 35.4076C0.388672 30.2215 0.388672 24.3539 3.6476 19.3245C5.32262 16.8879 7.56987 14.8996 10.1923 13.5337C12.8147 12.1679 15.7321 11.4663 18.6888 11.4905H18.9552C21.0993 11.5103 23.2222 11.9163 25.2223 12.6891L26.9458 11.0753C30.5494 7.68323 33.6595 4.76117 37.6078 0.99303C38.2945 0.336478 39.2139 -0.020401 40.1637 0.000901737C41.1135 0.0222045 42.0159 0.419944 42.6725 1.10662C43.329 1.7933 43.6859 2.71267 43.6646 3.66248C43.6433 4.61228 43.2456 5.51473 42.5589 6.17128C38.5871 9.95508 35.4692 12.8928 31.8499 16.2928L31.4033 16.7158C31.7324 17.037 32.0535 17.3817 32.3669 17.7342C34.2093 19.8525 35.5866 22.3339 36.4098 25.018C37.2329 27.702 37.4836 30.5289 37.1456 33.316C36.796 36.7435 35.1316 39.9022 32.5022 42.1285C29.8727 44.3548 26.4828 45.4754 23.0445 45.2549C21.1963 45.1086 19.4027 44.5594 17.7894 43.6458C16.1762 42.7323 14.7826 41.4766 13.7064 39.967C12.5882 38.3979 11.8294 36.6017 11.4842 34.7061C11.1389 32.8105 11.2156 30.8621 11.7087 28.9994C12.8525 24.5654 15.6257 21.2673 18.4381 18.6821C16.7134 18.6998 15.0172 19.124 13.4873 19.9203C11.9573 20.7166 10.6367 21.8625 9.63275 23.265C7.51758 26.4769 7.54108 31.0049 7.55675 35.3763V49.2659C7.55675 50.2154 7.17956 51.126 6.50815 51.7974C5.83675 52.4688 4.92613 52.846 3.97663 52.846ZM26.0527 21.5102C23.0288 24.017 19.6289 26.8686 18.6261 30.7386C18.3948 31.5832 18.3549 32.4688 18.5094 33.3307C18.6639 34.1927 19.0089 35.0093 19.5192 35.721C19.9859 36.3807 20.5892 36.932 21.2881 37.3376C21.987 37.7431 22.7651 37.9933 23.5694 38.0712C25.1692 38.1599 26.7401 37.6182 27.9454 36.5624C29.1506 35.5065 29.8942 34.0205 30.0167 32.4229C30.2809 30.411 30.0588 28.3651 29.3691 26.4568C28.6794 24.5485 27.5421 22.8334 26.0527 21.4553V21.5102Z" fill="#084FFF"/>
</svg>
